<mxfile host="Electron" agent="Mozilla/5.0 (X11; Linux x86_64) AppleWebKit/537.36 (KHTML, like Gecko) draw.io/26.1.1 Chrome/134.0.6998.205 Electron/35.2.0 Safari/537.36" version="26.1.1">
  <diagram name="Page-1" id="kIXfNWGNKyihAYugSSnY">
    <mxGraphModel dx="206" dy="213" grid="1" gridSize="10" guides="1" tooltips="1" connect="1" arrows="1" fold="1" page="1" pageScale="1" pageWidth="850" pageHeight="1100" math="0" shadow="0">
      <root>
        <mxCell id="0" />
        <mxCell id="1" parent="0" />
        <mxCell id="bXvVpTH8vn-bugdKV5ZR-1" value="Department" style="shape=table;startSize=30;container=1;collapsible=0;childLayout=tableLayout;strokeColor=default;fontSize=16;swimlaneLine=1;rounded=0;fontStyle=1" parent="1" vertex="1">
          <mxGeometry x="180" y="100" width="220" height="110" as="geometry" />
        </mxCell>
        <mxCell id="bXvVpTH8vn-bugdKV5ZR-2" value="" style="shape=tableRow;horizontal=0;startSize=0;swimlaneHead=0;swimlaneBody=0;strokeColor=inherit;top=0;left=0;bottom=0;right=0;collapsible=0;dropTarget=0;fillColor=none;points=[[0,0.5],[1,0.5]];portConstraint=eastwest;fontSize=16;swimlaneFillColor=none;" parent="bXvVpTH8vn-bugdKV5ZR-1" vertex="1">
          <mxGeometry y="30" width="220" height="27" as="geometry" />
        </mxCell>
        <mxCell id="bXvVpTH8vn-bugdKV5ZR-3" value="Dept ID" style="shape=partialRectangle;html=1;whiteSpace=wrap;connectable=0;strokeColor=inherit;overflow=hidden;fillColor=none;top=0;left=0;bottom=0;right=0;pointerEvents=1;fontSize=12;fontStyle=1;perimeterSpacing=6;strokeWidth=6;" parent="bXvVpTH8vn-bugdKV5ZR-2" vertex="1">
          <mxGeometry width="60" height="27" as="geometry">
            <mxRectangle width="60" height="27" as="alternateBounds" />
          </mxGeometry>
        </mxCell>
        <mxCell id="bXvVpTH8vn-bugdKV5ZR-4" value="Dept Name" style="shape=partialRectangle;html=1;whiteSpace=wrap;connectable=0;strokeColor=inherit;overflow=hidden;fillColor=none;top=0;left=0;bottom=0;right=0;pointerEvents=1;fontSize=12;fontStyle=1" parent="bXvVpTH8vn-bugdKV5ZR-2" vertex="1">
          <mxGeometry x="60" width="160" height="27" as="geometry">
            <mxRectangle width="160" height="27" as="alternateBounds" />
          </mxGeometry>
        </mxCell>
        <mxCell id="p7gMuwJCwxxJvRnvXopP-7" style="shape=tableRow;horizontal=0;startSize=0;swimlaneHead=0;swimlaneBody=0;strokeColor=inherit;top=0;left=0;bottom=0;right=0;collapsible=0;dropTarget=0;fillColor=none;points=[[0,0.5],[1,0.5]];portConstraint=eastwest;fontSize=16;" vertex="1" parent="bXvVpTH8vn-bugdKV5ZR-1">
          <mxGeometry y="57" width="220" height="26" as="geometry" />
        </mxCell>
        <mxCell id="p7gMuwJCwxxJvRnvXopP-8" value="1" style="shape=partialRectangle;html=1;whiteSpace=wrap;connectable=0;strokeColor=inherit;overflow=hidden;fillColor=none;top=0;left=0;bottom=0;right=0;pointerEvents=1;fontSize=12;perimeterSpacing=6;strokeWidth=6;" vertex="1" parent="p7gMuwJCwxxJvRnvXopP-7">
          <mxGeometry width="60" height="26" as="geometry">
            <mxRectangle width="60" height="26" as="alternateBounds" />
          </mxGeometry>
        </mxCell>
        <mxCell id="p7gMuwJCwxxJvRnvXopP-9" value="HR" style="shape=partialRectangle;html=1;whiteSpace=wrap;connectable=0;strokeColor=inherit;overflow=hidden;fillColor=none;top=0;left=0;bottom=0;right=0;pointerEvents=1;fontSize=12;" vertex="1" parent="p7gMuwJCwxxJvRnvXopP-7">
          <mxGeometry x="60" width="160" height="26" as="geometry">
            <mxRectangle width="160" height="26" as="alternateBounds" />
          </mxGeometry>
        </mxCell>
        <mxCell id="bXvVpTH8vn-bugdKV5ZR-6" value="" style="shape=tableRow;horizontal=0;startSize=0;swimlaneHead=0;swimlaneBody=0;strokeColor=inherit;top=0;left=0;bottom=0;right=0;collapsible=0;dropTarget=0;fillColor=none;points=[[0,0.5],[1,0.5]];portConstraint=eastwest;fontSize=16;" parent="bXvVpTH8vn-bugdKV5ZR-1" vertex="1">
          <mxGeometry y="83" width="220" height="27" as="geometry" />
        </mxCell>
        <mxCell id="bXvVpTH8vn-bugdKV5ZR-7" value="2" style="shape=partialRectangle;html=1;whiteSpace=wrap;connectable=0;strokeColor=inherit;overflow=hidden;fillColor=none;top=0;left=0;bottom=0;right=0;pointerEvents=1;fontSize=12;perimeterSpacing=6;strokeWidth=6;" parent="bXvVpTH8vn-bugdKV5ZR-6" vertex="1">
          <mxGeometry width="60" height="27" as="geometry">
            <mxRectangle width="60" height="27" as="alternateBounds" />
          </mxGeometry>
        </mxCell>
        <mxCell id="bXvVpTH8vn-bugdKV5ZR-8" value="Accounting" style="shape=partialRectangle;html=1;whiteSpace=wrap;connectable=0;strokeColor=inherit;overflow=hidden;fillColor=none;top=0;left=0;bottom=0;right=0;pointerEvents=1;fontSize=12;" parent="bXvVpTH8vn-bugdKV5ZR-6" vertex="1">
          <mxGeometry x="60" width="160" height="27" as="geometry">
            <mxRectangle width="160" height="27" as="alternateBounds" />
          </mxGeometry>
        </mxCell>
        <mxCell id="p7gMuwJCwxxJvRnvXopP-13" value="Building" style="shape=table;startSize=30;container=1;collapsible=0;childLayout=tableLayout;strokeColor=default;fontSize=16;swimlaneLine=1;rounded=0;fontStyle=1" vertex="1" parent="1">
          <mxGeometry x="180" y="220" width="220" height="110" as="geometry" />
        </mxCell>
        <mxCell id="p7gMuwJCwxxJvRnvXopP-14" value="" style="shape=tableRow;horizontal=0;startSize=0;swimlaneHead=0;swimlaneBody=0;strokeColor=inherit;top=0;left=0;bottom=0;right=0;collapsible=0;dropTarget=0;fillColor=none;points=[[0,0.5],[1,0.5]];portConstraint=eastwest;fontSize=16;" vertex="1" parent="p7gMuwJCwxxJvRnvXopP-13">
          <mxGeometry y="30" width="220" height="27" as="geometry" />
        </mxCell>
        <mxCell id="p7gMuwJCwxxJvRnvXopP-15" value="Building ID" style="shape=partialRectangle;html=1;whiteSpace=wrap;connectable=0;strokeColor=inherit;overflow=hidden;fillColor=none;top=0;left=0;bottom=0;right=0;pointerEvents=1;fontSize=12;fontStyle=1" vertex="1" parent="p7gMuwJCwxxJvRnvXopP-14">
          <mxGeometry width="80" height="27" as="geometry">
            <mxRectangle width="80" height="27" as="alternateBounds" />
          </mxGeometry>
        </mxCell>
        <mxCell id="p7gMuwJCwxxJvRnvXopP-16" value="Building Name" style="shape=partialRectangle;html=1;whiteSpace=wrap;connectable=0;strokeColor=inherit;overflow=hidden;fillColor=none;top=0;left=0;bottom=0;right=0;pointerEvents=1;fontSize=12;fontStyle=1" vertex="1" parent="p7gMuwJCwxxJvRnvXopP-14">
          <mxGeometry x="80" width="140" height="27" as="geometry">
            <mxRectangle width="140" height="27" as="alternateBounds" />
          </mxGeometry>
        </mxCell>
        <mxCell id="p7gMuwJCwxxJvRnvXopP-17" style="shape=tableRow;horizontal=0;startSize=0;swimlaneHead=0;swimlaneBody=0;strokeColor=inherit;top=0;left=0;bottom=0;right=0;collapsible=0;dropTarget=0;fillColor=none;points=[[0,0.5],[1,0.5]];portConstraint=eastwest;fontSize=16;" vertex="1" parent="p7gMuwJCwxxJvRnvXopP-13">
          <mxGeometry y="57" width="220" height="26" as="geometry" />
        </mxCell>
        <mxCell id="p7gMuwJCwxxJvRnvXopP-18" value="1" style="shape=partialRectangle;html=1;whiteSpace=wrap;connectable=0;strokeColor=inherit;overflow=hidden;fillColor=none;top=0;left=0;bottom=0;right=0;pointerEvents=1;fontSize=12;" vertex="1" parent="p7gMuwJCwxxJvRnvXopP-17">
          <mxGeometry width="80" height="26" as="geometry">
            <mxRectangle width="80" height="26" as="alternateBounds" />
          </mxGeometry>
        </mxCell>
        <mxCell id="p7gMuwJCwxxJvRnvXopP-19" value="Cochise" style="shape=partialRectangle;html=1;whiteSpace=wrap;connectable=0;strokeColor=inherit;overflow=hidden;fillColor=none;top=0;left=0;bottom=0;right=0;pointerEvents=1;fontSize=12;" vertex="1" parent="p7gMuwJCwxxJvRnvXopP-17">
          <mxGeometry x="80" width="140" height="26" as="geometry">
            <mxRectangle width="140" height="26" as="alternateBounds" />
          </mxGeometry>
        </mxCell>
        <mxCell id="p7gMuwJCwxxJvRnvXopP-20" value="" style="shape=tableRow;horizontal=0;startSize=0;swimlaneHead=0;swimlaneBody=0;strokeColor=inherit;top=0;left=0;bottom=0;right=0;collapsible=0;dropTarget=0;fillColor=none;points=[[0,0.5],[1,0.5]];portConstraint=eastwest;fontSize=16;" vertex="1" parent="p7gMuwJCwxxJvRnvXopP-13">
          <mxGeometry y="83" width="220" height="27" as="geometry" />
        </mxCell>
        <mxCell id="p7gMuwJCwxxJvRnvXopP-21" value="2" style="shape=partialRectangle;html=1;whiteSpace=wrap;connectable=0;strokeColor=inherit;overflow=hidden;fillColor=none;top=0;left=0;bottom=0;right=0;pointerEvents=1;fontSize=12;" vertex="1" parent="p7gMuwJCwxxJvRnvXopP-20">
          <mxGeometry width="80" height="27" as="geometry">
            <mxRectangle width="80" height="27" as="alternateBounds" />
          </mxGeometry>
        </mxCell>
        <mxCell id="p7gMuwJCwxxJvRnvXopP-22" value="Apache" style="shape=partialRectangle;html=1;whiteSpace=wrap;connectable=0;strokeColor=inherit;overflow=hidden;fillColor=none;top=0;left=0;bottom=0;right=0;pointerEvents=1;fontSize=12;" vertex="1" parent="p7gMuwJCwxxJvRnvXopP-20">
          <mxGeometry x="80" width="140" height="27" as="geometry">
            <mxRectangle width="140" height="27" as="alternateBounds" />
          </mxGeometry>
        </mxCell>
        <mxCell id="p7gMuwJCwxxJvRnvXopP-23" value="Position" style="shape=table;startSize=30;container=1;collapsible=0;childLayout=tableLayout;strokeColor=default;fontSize=16;swimlaneLine=1;rounded=0;fontStyle=1" vertex="1" parent="1">
          <mxGeometry x="180" y="340" width="220" height="137" as="geometry" />
        </mxCell>
        <mxCell id="p7gMuwJCwxxJvRnvXopP-24" value="" style="shape=tableRow;horizontal=0;startSize=0;swimlaneHead=0;swimlaneBody=0;strokeColor=inherit;top=0;left=0;bottom=0;right=0;collapsible=0;dropTarget=0;fillColor=none;points=[[0,0.5],[1,0.5]];portConstraint=eastwest;fontSize=16;" vertex="1" parent="p7gMuwJCwxxJvRnvXopP-23">
          <mxGeometry y="30" width="220" height="27" as="geometry" />
        </mxCell>
        <mxCell id="p7gMuwJCwxxJvRnvXopP-25" value="Position ID" style="shape=partialRectangle;html=1;whiteSpace=wrap;connectable=0;strokeColor=inherit;overflow=hidden;fillColor=none;top=0;left=0;bottom=0;right=0;pointerEvents=1;fontSize=12;fontStyle=1" vertex="1" parent="p7gMuwJCwxxJvRnvXopP-24">
          <mxGeometry width="80" height="27" as="geometry">
            <mxRectangle width="80" height="27" as="alternateBounds" />
          </mxGeometry>
        </mxCell>
        <mxCell id="p7gMuwJCwxxJvRnvXopP-26" value="Position Name" style="shape=partialRectangle;html=1;whiteSpace=wrap;connectable=0;strokeColor=inherit;overflow=hidden;fillColor=none;top=0;left=0;bottom=0;right=0;pointerEvents=1;fontSize=12;fontStyle=1" vertex="1" parent="p7gMuwJCwxxJvRnvXopP-24">
          <mxGeometry x="80" width="140" height="27" as="geometry">
            <mxRectangle width="140" height="27" as="alternateBounds" />
          </mxGeometry>
        </mxCell>
        <mxCell id="p7gMuwJCwxxJvRnvXopP-27" style="shape=tableRow;horizontal=0;startSize=0;swimlaneHead=0;swimlaneBody=0;strokeColor=inherit;top=0;left=0;bottom=0;right=0;collapsible=0;dropTarget=0;fillColor=none;points=[[0,0.5],[1,0.5]];portConstraint=eastwest;fontSize=16;" vertex="1" parent="p7gMuwJCwxxJvRnvXopP-23">
          <mxGeometry y="57" width="220" height="26" as="geometry" />
        </mxCell>
        <mxCell id="p7gMuwJCwxxJvRnvXopP-28" value="1" style="shape=partialRectangle;html=1;whiteSpace=wrap;connectable=0;strokeColor=inherit;overflow=hidden;fillColor=none;top=0;left=0;bottom=0;right=0;pointerEvents=1;fontSize=12;" vertex="1" parent="p7gMuwJCwxxJvRnvXopP-27">
          <mxGeometry width="80" height="26" as="geometry">
            <mxRectangle width="80" height="26" as="alternateBounds" />
          </mxGeometry>
        </mxCell>
        <mxCell id="p7gMuwJCwxxJvRnvXopP-29" value="Manager" style="shape=partialRectangle;html=1;whiteSpace=wrap;connectable=0;strokeColor=inherit;overflow=hidden;fillColor=none;top=0;left=0;bottom=0;right=0;pointerEvents=1;fontSize=12;" vertex="1" parent="p7gMuwJCwxxJvRnvXopP-27">
          <mxGeometry x="80" width="140" height="26" as="geometry">
            <mxRectangle width="140" height="26" as="alternateBounds" />
          </mxGeometry>
        </mxCell>
        <mxCell id="p7gMuwJCwxxJvRnvXopP-30" value="" style="shape=tableRow;horizontal=0;startSize=0;swimlaneHead=0;swimlaneBody=0;strokeColor=inherit;top=0;left=0;bottom=0;right=0;collapsible=0;dropTarget=0;fillColor=none;points=[[0,0.5],[1,0.5]];portConstraint=eastwest;fontSize=16;" vertex="1" parent="p7gMuwJCwxxJvRnvXopP-23">
          <mxGeometry y="83" width="220" height="27" as="geometry" />
        </mxCell>
        <mxCell id="p7gMuwJCwxxJvRnvXopP-31" value="2" style="shape=partialRectangle;html=1;whiteSpace=wrap;connectable=0;strokeColor=inherit;overflow=hidden;fillColor=none;top=0;left=0;bottom=0;right=0;pointerEvents=1;fontSize=12;" vertex="1" parent="p7gMuwJCwxxJvRnvXopP-30">
          <mxGeometry width="80" height="27" as="geometry">
            <mxRectangle width="80" height="27" as="alternateBounds" />
          </mxGeometry>
        </mxCell>
        <mxCell id="p7gMuwJCwxxJvRnvXopP-32" value="Office Assistant" style="shape=partialRectangle;html=1;whiteSpace=wrap;connectable=0;strokeColor=inherit;overflow=hidden;fillColor=none;top=0;left=0;bottom=0;right=0;pointerEvents=1;fontSize=12;" vertex="1" parent="p7gMuwJCwxxJvRnvXopP-30">
          <mxGeometry x="80" width="140" height="27" as="geometry">
            <mxRectangle width="140" height="27" as="alternateBounds" />
          </mxGeometry>
        </mxCell>
        <mxCell id="p7gMuwJCwxxJvRnvXopP-33" style="shape=tableRow;horizontal=0;startSize=0;swimlaneHead=0;swimlaneBody=0;strokeColor=inherit;top=0;left=0;bottom=0;right=0;collapsible=0;dropTarget=0;fillColor=none;points=[[0,0.5],[1,0.5]];portConstraint=eastwest;fontSize=16;" vertex="1" parent="p7gMuwJCwxxJvRnvXopP-23">
          <mxGeometry y="110" width="220" height="27" as="geometry" />
        </mxCell>
        <mxCell id="p7gMuwJCwxxJvRnvXopP-34" value="3" style="shape=partialRectangle;html=1;whiteSpace=wrap;connectable=0;strokeColor=inherit;overflow=hidden;fillColor=none;top=0;left=0;bottom=0;right=0;pointerEvents=1;fontSize=12;" vertex="1" parent="p7gMuwJCwxxJvRnvXopP-33">
          <mxGeometry width="80" height="27" as="geometry">
            <mxRectangle width="80" height="27" as="alternateBounds" />
          </mxGeometry>
        </mxCell>
        <mxCell id="p7gMuwJCwxxJvRnvXopP-35" value="Accountant" style="shape=partialRectangle;html=1;whiteSpace=wrap;connectable=0;strokeColor=inherit;overflow=hidden;fillColor=none;top=0;left=0;bottom=0;right=0;pointerEvents=1;fontSize=12;" vertex="1" parent="p7gMuwJCwxxJvRnvXopP-33">
          <mxGeometry x="80" width="140" height="27" as="geometry">
            <mxRectangle width="140" height="27" as="alternateBounds" />
          </mxGeometry>
        </mxCell>
      </root>
    </mxGraphModel>
  </diagram>
</mxfile>
